<svg width="31" height="31" viewBox="0 0 31 31" fill="none" xmlns="http://www.w3.org/2000/svg">
  <path d="M11.2008 18.5095C11.2008 20.1758 12.4796 21.5191 14.0683 21.5191H17.3104C18.6925 21.5191 19.8163 20.3437 19.8163 18.897C19.8163 17.3212 19.1317 16.7658 18.1113 16.4041L12.9058 14.5958C11.8854 14.2341 11.2008 13.6787 11.2008 12.1029C11.2008 10.6562 12.3246 9.48079 13.7067 9.48079H16.9488C18.5375 9.48079 19.8163 10.8241 19.8163 12.4904M15.4997 7.75016V23.2502M28.4163 15.5002C28.4163 22.6338 22.6334 28.4168 15.4997 28.4168C8.366 28.4168 2.58301 22.6338 2.58301 15.5002C2.58301 8.36648 8.366 2.5835 15.4997 2.5835C22.6334 2.5835 28.4163 8.36648 28.4163 15.5002Z" stroke="#339FC7" strokeWidth="2" strokeLinecap="round" strokeLinejoin="round"/>
</svg>